<svg width="30" height="30" viewBox="0 0 30 30" fill="none" xmlns="http://www.w3.org/2000/svg">
<path d="M13.6879 0.307262C13.9439 0.10812 14.259 0 14.5833 0C14.9077 0 15.2227 0.10812 15.4787 0.307262L27.4779 9.64059C28.0041 10.0499 28.4299 10.5741 28.7225 11.1732C29.0152 11.7722 29.1671 12.4302 29.1667 13.0968V26.251C29.1667 27.0246 28.8594 27.7664 28.3124 28.3134C27.7654 28.8604 27.0235 29.1677 26.25 29.1677H20.4167C19.6431 29.1677 18.9013 28.8604 18.3543 28.3134C17.8073 27.7664 17.5 27.0246 17.5 26.251V17.501H11.6667V26.251C11.6667 27.0246 11.3594 27.7664 10.8124 28.3134C10.2654 28.8604 9.52355 29.1677 8.75 29.1677H2.91667C2.14312 29.1677 1.40125 28.8604 0.854272 28.3134C0.307291 27.7664 0 27.0246 0 26.251V13.0968C0 11.7435 0.624167 10.4718 1.69167 9.64059L13.6879 0.307262ZM14.5833 3.30559L3.47958 11.9418C3.30379 12.0786 3.16165 12.2538 3.06407 12.454C2.96649 12.6542 2.91607 12.8741 2.91667 13.0968V26.251H8.75V17.501C8.75 16.7275 9.05729 15.9856 9.60427 15.4386C10.1513 14.8916 10.8931 14.5843 11.6667 14.5843H17.5C18.2735 14.5843 19.0154 14.8916 19.5624 15.4386C20.1094 15.9856 20.4167 16.7275 20.4167 17.501V26.251H26.25V13.0968C26.2506 12.8741 26.2002 12.6542 26.1026 12.454C26.005 12.2538 25.8629 12.0786 25.6871 11.9418L14.5833 3.30851V3.30559Z" fill="white"/>
</svg>
