<svg width="27" height="27" viewBox="0 0 27 27" fill="none" xmlns="http://www.w3.org/2000/svg">
<path d="M25.3417 5.78542L21.2146 1.65833C20.3949 0.837627 19.2828 0.376021 18.1229 0.375H8.87708C7.71715 0.376021 6.6051 0.837627 5.78542 1.65833L1.65833 5.78542C0.837627 6.6051 0.376021 7.71715 0.375 8.87708V22.25C0.375 23.4103 0.835936 24.5231 1.65641 25.3436C2.47688 26.1641 3.58968 26.625 4.75 26.625H22.25C23.4103 26.625 24.5231 26.1641 25.3436 25.3436C26.1641 24.5231 26.625 23.4103 26.625 22.25V8.87708C26.624 7.71715 26.1624 6.6051 25.3417 5.78542V5.78542ZM7.84167 3.71458C8.12113 3.4481 8.49097 3.29704 8.87708 3.29167H18.1229C18.509 3.29704 18.8789 3.4481 19.1583 3.71458L21.6521 6.20833H5.34792L7.84167 3.71458ZM22.25 23.7083H4.75C4.36323 23.7083 3.99229 23.5547 3.7188 23.2812C3.44531 23.0077 3.29167 22.6368 3.29167 22.25V9.125H23.7083V22.25C23.7083 22.6368 23.5547 23.0077 23.2812 23.2812C23.0077 23.5547 22.6368 23.7083 22.25 23.7083Z" fill="white"/>
<path d="M17.875 12.0417C17.4882 12.0417 17.1173 12.1953 16.8438 12.4688C16.5703 12.7423 16.4166 13.1132 16.4166 13.5C16.4166 14.2736 16.1093 15.0154 15.5624 15.5624C15.0154 16.1094 14.2735 16.4167 13.5 16.4167C12.7264 16.4167 11.9845 16.1094 11.4376 15.5624C10.8906 15.0154 10.5833 14.2736 10.5833 13.5C10.5833 13.1132 10.4296 12.7423 10.1562 12.4688C9.88267 12.1953 9.51173 12.0417 9.12496 12.0417C8.73819 12.0417 8.36725 12.1953 8.09376 12.4688C7.82027 12.7423 7.66663 13.1132 7.66663 13.5C7.66663 15.0471 8.28121 16.5308 9.37517 17.6248C10.4691 18.7188 11.9529 19.3333 13.5 19.3333C15.0471 19.3333 16.5308 18.7188 17.6248 17.6248C18.7187 16.5308 19.3333 15.0471 19.3333 13.5C19.3333 13.1132 19.1796 12.7423 18.9062 12.4688C18.6327 12.1953 18.2617 12.0417 17.875 12.0417Z" fill="white"/>
</svg>
