<svg width="32" height="37" viewBox="0 0 32 37" fill="none" xmlns="http://www.w3.org/2000/svg">
<path d="M15.8333 36.6667L0 27.5V9.16667L15.8333 0L31.6667 9.16667V27.5L15.8333 36.6667ZM15.8333 3.85333L3.33333 11.0883V25.5783L15.8333 32.815L28.3333 25.5783V11.0883L15.8333 3.85167V3.85333ZM15.8333 25C14.2909 25.0003 12.7962 24.4658 11.6037 23.4876C10.4112 22.5094 9.5948 21.1479 9.2936 19.6352C8.99239 18.1225 9.22502 16.5522 9.95184 15.1918C10.6787 13.8314 11.8547 12.7651 13.2796 12.1746C14.7044 11.5841 16.29 11.5059 17.766 11.9534C19.2421 12.4009 20.5173 13.3463 21.3744 14.6286C22.2315 15.9109 22.6175 17.4507 22.4666 18.9857C22.3156 20.5207 21.6371 21.9559 20.5467 23.0467C19.2939 24.2928 17.6003 24.9947 15.8333 25ZM15.8333 15C15.3956 14.9999 14.9621 15.086 14.5577 15.2534C14.1532 15.4208 13.7857 15.6663 13.4761 15.9757C13.1665 16.2852 12.9208 16.6526 12.7532 17.0569C12.5856 17.4613 12.4993 17.8948 12.4992 18.3325C12.4991 18.7702 12.5852 19.2037 12.7526 19.6082C12.92 20.0126 13.1654 20.3802 13.4749 20.6898C13.7843 20.9994 14.1517 21.245 14.5561 21.4126C14.9605 21.5802 15.3939 21.6666 15.8317 21.6667C16.7157 21.6669 17.5637 21.3159 18.1889 20.6909C18.8142 20.066 19.1656 19.2182 19.1658 18.3342C19.1661 17.4501 18.8151 16.6022 18.1901 15.9769C17.5651 15.3516 16.7174 15.0002 15.8333 15Z" fill="white"/>
</svg>
